<?xml version="1.0" encoding="utf-8"?>
<!-- Generator: Adobe Illustrator 22.0.0, SVG Export Plug-In . SVG Version: 6.00 Build 0)  -->
<svg version="1.1" id="Layer_1" xmlns="http://www.w3.org/2000/svg" xmlns:xlink="http://www.w3.org/1999/xlink" x="0px" y="0px"
	 viewBox="0 0 512 512" style="enable-background:new 0 0 512 512;" xml:space="preserve">
<style type="text/css">
	.st0{fill:#EEEEEE;}
	.st1{fill:#FFFFFF;}
</style>
<g>
	<path class="st0" d="M368.4,453.3c-25,36.8-65.7,59.6-114.5,58.7c-103-2.3-164.8-115.8-112.6-204.6l100.1-170.6
		c4.8-8.3,14.5-10.9,22.4-8c3.8,1.4,7.2,4.1,9.6,8l100.1,170.6C402,356.1,396.3,412.2,368.4,453.3z"/>
	<path class="st0" d="M501.3,154.7c-11.4,26.3-36.8,44.4-68.9,43.6c-55.1-1.7-87.7-62.5-59.9-110l46.4-79.1
		c4.8-8.2,14.5-10.9,22.4-8c3.8,1.4,7.2,4,9.6,8l46.4,79.1C510,109.9,510.2,134.3,501.3,154.7z"/>
	<path class="st0" d="M129.4,232.8c-9,24.1-31.5,42-60.1,42c-50.4,0-80.2-54.9-55.3-97.5l41.1-70.1c4.6-7.9,14.2-10,21.5-6.4
		c2.7,1.3,5.1,3.5,6.8,6.4l41.1,70.1C135.1,195.4,135.8,215.5,129.4,232.8z"/>
</g>
<path class="st1" d="M368.4,453.3c-19.2,11.8-41.8,19-67,19.6c-106.4,2.9-173-113.4-119.5-204.6l81.9-139.5c3.8,1.4,7.2,4.1,9.6,8
	l100.1,170.6C402,356.1,396.3,412.2,368.4,453.3z"/>
<path class="st1" d="M501.3,154.7c-7.1,2.7-14.9,4.3-23.2,4.6c-0.8,0-1.7,0-2.5,0c-0.9,0-1.7,0-2.5,0c-55.1-1.7-87.8-62.5-59.9-110
	l28.2-48.1c3.8,1.4,7.2,4,9.6,8l46.4,79.1C510,109.9,510.2,134.3,501.3,154.7z"/>
<path class="st1" d="M129.4,232.8c-5.4,1.7-11.2,2.7-17.3,2.9c-0.7,0-1.5,0-2.3,0c-0.8,0-1.5,0-2.2,0c-48.8-1.5-77.7-55.3-53-97.4
	l21.9-37.4c2.7,1.3,5.1,3.5,6.8,6.4l41.1,70.1C135.1,195.4,135.8,215.5,129.4,232.8z"/>
</svg>
